<svg width="41" height="41" viewBox="0 0 41 41" fill="none" xmlns="http://www.w3.org/2000/svg">
<path d="M27.3828 26.0541C26.4114 26.0541 25.6211 25.37 25.6211 24.5293C25.6211 23.6885 26.4114 23.0045 27.3828 23.0045C28.3542 23.0045 29.1445 23.6885 29.1445 24.5293C29.1445 24.9715 29.5031 25.3301 29.9453 25.3301C30.3875 25.3301 30.7461 24.9715 30.7461 24.5293C30.7461 23.0619 29.6527 21.828 28.1836 21.4931V21.0767C28.1836 20.6345 27.825 20.2759 27.3828 20.2759C26.9406 20.2759 26.582 20.6345 26.582 21.0767V21.4931C25.1129 21.828 24.0195 23.0619 24.0195 24.5293C24.0195 26.2531 25.5283 27.6556 27.3828 27.6556C28.3542 27.6556 29.1445 28.3397 29.1445 29.1805C29.1445 30.0213 28.3542 30.7053 27.3828 30.7053C26.4114 30.7053 25.6211 30.0213 25.6211 29.1805C25.6211 28.7383 25.2625 28.3797 24.8203 28.3797C24.3781 28.3797 24.0195 28.7383 24.0195 29.1805C24.0195 30.6479 25.1129 31.8817 26.582 32.2166V32.5626C26.582 33.0048 26.9406 33.3633 27.3828 33.3633C27.825 33.3633 28.1836 33.0048 28.1836 32.5626V32.2166C29.6527 31.8817 30.7461 30.6479 30.7461 29.1805C30.7461 27.4566 29.2373 26.0541 27.3828 26.0541Z" fill="white"/>
<path d="M36.1535 21.2907C35.1075 19.6608 33.6337 18.3564 31.8916 17.519C31.4929 17.3273 31.0145 17.4951 30.8229 17.8938C30.6313 18.2924 30.799 18.7708 31.1977 18.9624C34.2335 20.4217 36.195 23.5399 36.195 26.9062C36.195 28.3467 35.84 29.7752 35.1683 31.0375C34.9606 31.4279 35.1087 31.9129 35.4991 32.1206C35.6189 32.1843 35.7477 32.2146 35.8746 32.2146C36.1611 32.2146 36.4382 32.0604 36.5822 31.7898C37.3767 30.2968 37.7966 28.608 37.7966 26.9062C37.7966 24.9075 37.2284 22.9657 36.1535 21.2907Z" fill="white"/>
<path d="M28.6418 16.4962L28.5879 16.4961C28.1457 16.4961 27.7871 16.8546 27.7871 17.2969C27.7871 17.7391 28.1457 18.0976 28.5879 18.0976L28.6343 18.0977C28.6355 18.0977 28.6367 18.0977 28.6381 18.0977C29.0786 18.0977 29.4367 17.7417 29.4388 17.3007C29.4408 16.8584 29.084 16.4983 28.6418 16.4962Z" fill="white"/>
<path d="M23.5754 34.8501C20.5396 33.3906 18.5781 30.2725 18.5781 26.9063C18.5781 25.4658 18.9332 24.0373 19.6048 22.775C19.8125 22.3846 19.6645 21.8996 19.274 21.6919C18.8837 21.4842 18.3986 21.6322 18.1909 22.0227C17.3965 23.5158 16.9766 25.2044 16.9766 26.9063C16.9766 28.905 17.5447 30.8467 18.6196 32.5217C19.6657 34.1517 21.1394 35.456 22.8815 36.2935C22.9934 36.3474 23.1116 36.3727 23.2279 36.3727C23.5261 36.3727 23.8123 36.2055 23.9502 35.9188C24.1417 35.5202 23.974 35.0417 23.5754 34.8501Z" fill="white"/>
<path d="M26.1857 35.7148L26.1394 35.7146C25.6951 35.7138 25.337 36.0693 25.335 36.5116C25.3329 36.9539 25.6899 37.3141 26.1321 37.3162L26.1857 37.3163C26.6279 37.3163 26.9865 36.9577 26.9865 36.5155C26.9865 36.0734 26.6279 35.7148 26.1857 35.7148Z" fill="white"/>
<path d="M31.0229 13.7869C30.9255 13.5546 30.8061 13.3358 30.6671 13.1328H32.7519C34.783 13.1328 36.4355 11.4803 36.4355 9.4492C36.4355 7.4181 34.783 5.76561 32.7519 5.76561H26.3392C26.7469 5.17288 26.9863 4.45578 26.9863 3.68359C26.9863 1.65249 25.3338 0 23.3027 0H3.68359C1.65249 0 0 1.65249 0 3.68359C0 5.71468 1.65249 7.36717 3.68359 7.36717H10.0962C9.68855 7.95991 9.4492 8.67701 9.4492 9.4492C9.4492 10.2214 9.68847 10.9385 10.0962 11.5312H8.0078C5.9767 11.5312 4.32421 13.1837 4.32421 15.2148C4.32421 16.3813 4.86986 17.4222 5.71877 18.0976C4.86986 18.773 4.32421 19.8139 4.32421 20.9804C4.32421 22.1469 4.86986 23.1879 5.71877 23.8632C4.86986 24.5386 4.32421 25.5795 4.32421 26.746C4.32421 27.9125 4.86986 28.9535 5.71877 29.6289C4.86986 30.3042 4.32421 31.3452 4.32421 32.5117C4.32421 34.5428 5.9767 36.1952 8.0078 36.1952H17.445C19.9311 38.8544 23.4678 40.5195 27.3867 40.5195C34.8931 40.5195 41 34.4126 41 26.9063C41 20.6588 36.7695 15.3816 31.0229 13.7869ZM32.7519 7.36717C33.9 7.36717 34.8339 8.3012 34.8339 9.4492C34.8339 10.5972 33.9 11.5312 32.7519 11.5312H27.6269H13.1328C11.9847 11.5312 11.0508 10.5972 11.0508 9.4492C11.0508 8.3012 11.9847 7.36717 13.1328 7.36717H32.7519ZM3.68359 5.76561C2.53551 5.76561 1.60156 4.83158 1.60156 3.68359C1.60156 2.53559 2.53551 1.60156 3.68359 1.60156H23.3027C24.4508 1.60156 25.3847 2.53559 25.3847 3.68359C25.3847 4.83158 24.4508 5.76561 23.3027 5.76561H3.68359ZM8.0078 13.1328H27.6269C27.9495 13.1328 28.2583 13.2077 28.5354 13.342C28.1566 13.3102 27.7737 13.293 27.3867 13.293C23.6275 13.293 20.2194 14.8248 17.7534 17.2968H8.0078C6.8598 17.2968 5.92577 16.3628 5.92577 15.2148C5.92577 14.0668 6.8598 13.1328 8.0078 13.1328ZM8.0078 18.8984H16.3852C15.4761 20.1439 14.7733 21.5486 14.3269 23.0625H8.0078C6.85972 23.0625 5.92577 22.1285 5.92577 20.9804C5.92577 19.8324 6.85972 18.8984 8.0078 18.8984ZM8.0078 24.664H13.9592C13.8377 25.3938 13.7735 26.1426 13.7735 26.9063C13.7735 27.5586 13.8207 28.2 13.9098 28.8281H8.0078C6.85972 28.8281 5.92577 27.8941 5.92577 26.746C5.92577 25.598 6.85972 24.664 8.0078 24.664ZM8.0078 34.5937C6.85972 34.5937 5.92577 33.6597 5.92577 32.5117C5.92577 31.3636 6.85972 30.4296 8.0078 30.4296H14.2367C14.6408 31.9361 15.2972 33.3401 16.1581 34.5937H8.0078ZM27.3867 38.918C20.7635 38.918 15.3751 33.5295 15.3751 26.9063C15.3751 20.283 20.7635 14.8946 27.3867 14.8946C34.01 14.8946 39.3984 20.283 39.3984 26.9063C39.3984 33.5295 34.01 38.918 27.3867 38.918Z" fill="white"/>
</svg>
